<svg xmlns="http://www.w3.org/2000/svg" viewBox="0 0 20 20">
<path d="M2,9.8c0,0.4,0.3,0.8,0.8,0.8h14.5c0.4,0,0.8-0.3,0.8-0.8S17.7,9,17.3,9H2.8C2.3,9,2,9.3,2,9.8z M7,3.8
	c0,0.4,0.3,0.8,0.8,0.8h9.5c0.4,0,0.8-0.3,0.8-0.8S17.7,3,17.3,3H7.8C7.3,3,7,3.3,7,3.8z M2.8,16.5h14.5c0.4,0,0.8-0.3,0.8-0.8
	S17.7,15,17.3,15H2.8C2.3,15,2,15.3,2,15.8S2.3,16.5,2.8,16.5z M1.6,1L5,3.4c0.2,0.1,0.2,0.4,0.1,0.6C5.1,4,5,4,5,4.1L1.6,6.3
	C1.4,6.4,1.2,6.3,1.1,6.1C1,6.1,1,6,1,5.9V1.3c0-0.2,0.2-0.4,0.4-0.4C1.5,0.9,1.6,0.9,1.6,1L1.6,1z"/>
</svg>